<?xml version="1.0" encoding="UTF-8"?>
<svg id="Layer_1_copy_2" xmlns="http://www.w3.org/2000/svg" viewBox="0 0 811.58 648.39">
  <defs>
    <style>
      .cls-1 {
        fill: #eaeaea;
      }

      .cls-2 {
        stroke-width: 7px;
      }

      .cls-2, .cls-3 {
        stroke: #eaeaea;
        stroke-linecap: round;
        stroke-linejoin: round;
      }

      .cls-2, .cls-3, .cls-4 {
        fill: #9ccbfa;
      }

      .cls-3 {
        stroke-width: 4px;
      }
    </style>
  </defs>
  <g>
    <path class="cls-4" d="M749.87,643.4c-4.13,0-8.16-.76-11.97-2.25-.41-.16-.84-.24-1.28-.24-.22,0-.45.02-.67.06-3.77.74-7.94,1.09-12.74,1.09-6.48,0-13.35-.66-19.99-1.3-6.77-.65-13.76-1.33-20.5-1.33-3.31,0-6.3.16-9.14.48-2.01.23-4.1.35-6.22.35-10.78,0-21.27-2.91-32.37-5.99-2.64-.73-5.28-1.46-7.93-2.16-5.07-1.33-10.24-2.51-15.25-3.66-10.62-2.43-21.6-4.95-31.79-8.88-6.37-2.46-12.27-6.18-18.51-10.12-8.13-5.13-16.53-10.43-26.1-12.72-27.74-6.61-50.85-29.84-57.51-57.83-.22-.92-.81-1.72-1.62-2.2-28.57-16.9-46.81-49.08-46.75-82.25,29.77-33.45,58.35-71.85,85.99-109,25.68-34.51,52.23-70.19,79.45-101.47,6.26-7.2,12.62-14.6,18.76-21.76,49.41-57.55,100.48-117.03,169.06-147.95l7.47,9.71c-13.43,159.99-5.43,281.6,12.91,437.35l.13,1.12c3.24,27.55,6.59,56.03-3.45,81.18-7.69,19.27-27.83,39.75-50,39.75h0Z"/>
    <path class="cls-1" d="M781.74,78.63l4.95,6.43c-6.3,75.61-8,144.75-5.36,217.33,2.3,63.18,7.97,130.84,18.4,219.37l.13,1.13c3.19,27.11,6.49,55.15-3.22,79.47-3.93,9.84-11.02,19.46-19.46,26.4-8.74,7.19-18.44,11.14-27.3,11.14-3.69,0-7.29-.68-10.69-2.01-.82-.32-1.68-.48-2.55-.48-.45,0-.9.04-1.34.13-3.55.69-7.5,1.03-12.07,1.03-6.31,0-12.79-.62-19.65-1.29-6.85-.66-13.93-1.34-20.84-1.34-3.45,0-6.57.17-9.55.51-1.88.22-3.83.32-5.82.32-10.31,0-20.57-2.85-31.43-5.86-2.61-.72-5.3-1.47-7.98-2.17-5.12-1.34-10.32-2.53-15.36-3.69-10.98-2.52-21.35-4.89-31.3-8.73-6.05-2.33-11.81-5.97-17.9-9.82-8.37-5.28-17.02-10.75-27.16-13.16-26.48-6.31-48.55-28.5-54.91-55.23-.44-1.85-1.61-3.44-3.25-4.4-13.57-8.03-25.01-19.89-33.08-34.32-7.63-13.65-11.74-28.67-11.94-43.6,29.55-33.32,57.88-71.39,85.29-108.24,25.64-34.45,52.15-70.08,79.28-101.26,6.27-7.21,12.63-14.61,18.78-21.78,48.55-56.55,98.71-114.97,165.33-145.89M783.91,69.97c-79.3,34.73-134.72,106.41-191.56,171.73-56.84,65.32-108.6,146.84-166.29,211.42-.57,34.66,18.63,68.97,48.45,86.61,6.96,29.25,30.87,53.46,60.1,60.42,15.97,3.81,28.84,16.79,44.16,22.7,15.26,5.89,31.59,8.52,47.41,12.66,13.71,3.59,27.25,8.26,41.18,8.26,2.2,0,4.4-.12,6.62-.37,2.86-.33,5.78-.46,8.75-.46,13.17,0,27.22,2.63,40.49,2.63,4.59,0,9.08-.31,13.41-1.16,4.36,1.71,8.81,2.49,13.24,2.49,22.4,0,44.49-19.98,53.26-41.95,10.51-26.32,6.85-55.86,3.54-84.01-18.54-157.43-26.14-280.05-12.78-438l-9.98-12.97h0Z"/>
  </g>
  <ellipse class="cls-2" cx="776.91" cy="595.18" rx="10.44" ry="7.94" transform="translate(-167.78 339.48) rotate(-22.31)"/>
  <ellipse class="cls-2" cx="771.92" cy="572.14" rx="10.44" ry="7.94" transform="translate(-159.41 335.86) rotate(-22.31)"/>
  <path class="cls-2" d="M728.54,620.48c0,4.39,4.67,7.94,10.44,7.94,5.77,0,10.44-3.55,10.44-7.94s-4.67-7.94-10.44-7.94c-5.77,0-10.44,3.55-10.44,7.94Z"/>
  <ellipse class="cls-2" cx="731.05" cy="597.16" rx="10.44" ry="7.94"/>
  <ellipse class="cls-2" cx="697.06" cy="627.21" rx="10.44" ry="7.94"/>
  <ellipse class="cls-2" cx="695.08" cy="599.92" rx="10.44" ry="7.94"/>
  <path class="cls-2" d="M636.4,617.67c0,4.39,4.67,7.94,10.44,7.94,5.77,0,10.44-3.55,10.44-7.94s-4.67-7.94-10.44-7.94c-5.77,0-10.44,3.55-10.44,7.94Z"/>
  <path class="cls-2" d="M635.55,594.47c0,4.39,4.67,7.94,10.44,7.94,5.77,0,10.44-3.55,10.44-7.94,0-4.39-4.67-7.94-10.44-7.94-5.77,0-10.44,3.55-10.44,7.94Z"/>
  <ellipse class="cls-2" cx="603.84" cy="613.11" rx="7.94" ry="10.44" transform="translate(-147.82 1032.06) rotate(-74.57)"/>
  <ellipse class="cls-2" cx="600.86" cy="587.3" rx="7.94" ry="10.44" transform="translate(-125.14 1010.25) rotate(-74.57)"/>
  <ellipse class="cls-2" cx="557" cy="591.53" rx="7.94" ry="10.44" transform="translate(-184.28 924.17) rotate(-70.89)"/>
  <ellipse class="cls-2" cx="565.42" cy="573.67" rx="7.94" ry="10.44" transform="translate(-161.75 920.12) rotate(-70.89)"/>
  <ellipse class="cls-2" cx="523.28" cy="578.14" rx="6.35" ry="8.35" transform="translate(-194.31 883.31) rotate(-70.89)"/>
  <ellipse class="cls-2" cx="532.94" cy="560.19" rx="6.35" ry="8.35" transform="translate(-170.85 880.36) rotate(-70.89)"/>
  <ellipse class="cls-2" cx="495.28" cy="544.36" rx="6.35" ry="8.35" transform="translate(-205.59 319.84) rotate(-29.94)"/>
  <ellipse class="cls-2" cx="466.03" cy="508.16" rx="6.35" ry="8.35" transform="translate(-222.79 477.53) rotate(-44.93)"/>
  <ellipse class="cls-2" cx="446.53" cy="473.17" rx="6.35" ry="8.35" transform="translate(-117.36 148.67) rotate(-16.74)"/>
  <path class="cls-2" d="M658.39,197.85c13.09-27.6,25.77-45.37,48.53-65.71,10.36-9.26,70.87-36.09,73.41-43.89-20.43,62.81-69.52,231.3-72.12,234.61-30.49,38.7-67.14,124.67-86.26,87.81-4.46-60.73,9.94-156.96,36.44-212.82Z"/>
  <path class="cls-2" d="M742.42,523.03c-17.1-78.88-20.08-197.2-18.59-204.64,7.56-37.8,51.31-226.95,57.26-188.26,13.38,49.86-5.21,306.58,10.41,404.06,1.34,8.38-43.2,15.97-49.08-11.16h0Z"/>
  <path class="cls-2" d="M713.64,330.41c-.63,49.01-1.22,98.39,7.75,146.57,5.08,27.28,10.99,54.77,12.73,82.47-5.16-.69-10.52.21-15.16,2.56-1.79.9-3.61,2.05-5.62,1.94s-4.06-1.48-5.89-.66c-1.35.61-1.95,2.15-2.91,3.27-1.72,2.01-4.62,2.64-7.25,2.43s-5.16-1.12-7.75-1.66c-6.08-1.26-13.56-.42-19.12,2.35-10.69-16.91-7.96-123.21-12.69-154.91,13.82-25.6,38.95-61.8,57.18-84.47"/>
  <path class="cls-2" d="M624.4,429.42c3.23.69,5.01-.79,7.94-2.3,1.7,1.47,3.4,2.93,5.1,4.4,2.15-1.18,4.29-2.36,6.43-3.54,1.12,32.11,3.64,64.17,7.57,96.05,1.29,10.48,1.73,20.44-2.32,30.18-6.78,2.83-14.49,3.39-21.61,1.56-5-.59-10.2.71-14.35,3.56-2.5-1.19-4.61-3.16-5.99-5.56-2.29,1.41-4.88,2.34-7.55,2.71-1-5.42-6.87-9.44-12.29-8.4-3.38-3.27-2.6-8.79-1.53-13.38,6.14-26.32,13.48-52.35,22.01-77.99,1.24-3.74,2.55-7.54,5.01-10.61,4.42-5.51,12.77-9.72,11.59-16.68h-.01Z"/>
  <path class="cls-2" d="M615.11,386.62c-.37-10.59-.25-21.19.37-31.77.36-6.03,5.23-22.82-1.17-26.16-7.27,7.58-11.56,21.53-16.59,31-5.85,11-11.92,21.89-18.4,32.54-22.88,37.63-51.39,73.7-59.57,116.98-.72,3.84-1.21,8.1.87,11.41,1.35,2.15,3.57,3.56,5.72,4.89,5.06,3.14,10.32,6.36,16.22,7.15,2.64.35,6.16.9,6.46,3.55,1.62-.7,3.25-1.39,4.87-2.09-2.89,3.57,2.25,9.08,6.73,8.08,4.48-1,7.2-5.51,8.91-9.77,4.8-11.97,5.78-25.06,8.09-37.75,3.84-21.06,11.5-41.42,22.5-59.79,5.66-9.45,12.32-18.7,14.4-29.52,1.18-6.16.8-12.49.58-18.76h.01Z"/>
  <path class="cls-2" d="M500.13,466.36c-.08-10.15-2.16-21.83-.49-31.75,1.88-11.13,10.08-21.77,16.92-30.34,9.11-11.42,19.2-22.01,29.27-32.58,11.37-11.94,22.74-23.87,34.11-35.81,11.63-12.22,23.52-24.63,38.3-32.77-5.45,16.39-14.34,31.62-25.92,44.43-3.59,3.97-7.47,7.76-10.13,12.4-2.13,3.71-3.39,7.84-4.96,11.82-3.61,9.19-8.85,17.63-14.06,26.01-5.64,9.08-11.29,18.16-16.93,27.24-10.17,16.36-20.4,32.81-33.31,47.09-2.18,2.41-5.15,4.98-8.29,4.1-3.74-1.06-4.49-5.96-4.52-9.85h0Z"/>
  <g>
    <path class="cls-4" d="M443.16,455.43c-35.75,0-73.81-16.44-106.33-32.51-12.34-6.1-23.74-12.03-34.76-17.76-36.74-19.1-68.47-35.6-113.15-47.23-27.29-7.1-62.02-18.27-95.27-30.65-17.54-6.53-42.5-17.53-61.77-32.85-20.34-16.17-29.21-33.14-26.36-50.45,6.13-37.29,35.13-72.41,86.21-104.39,45.08-28.22,106.34-53.48,182.09-75.09,65.4-18.66,140.6-34.12,217.49-44.73,69.05-9.52,137.33-14.77,192.27-14.77,5.57,0,11.05.05,16.3.16,2.34.05,4.69.08,7.05.12,20.39.31,41.44.63,59.46,9.04-4.91,21.74-.49,40,12.84,52.95l.58.56c2.01,1.93,3.91,3.75,4.17,5.68.44,3.27-3.58,5.99-8.88,9.2l-1.02.62c-18.12,11.1-25.32,31.7-32.28,51.62-1.33,3.82-2.72,7.77-4.13,11.52-17.61,46.5-52.77,83.88-86.77,120.04-21.2,22.54-43.12,45.85-60.99,71.43-27.88,39.89-60.75,84.21-97.94,105.15-14.74,8.3-30.7,12.33-48.8,12.33Z"/>
    <path class="cls-1" d="M683.58,8.5c5.55,0,11.01.05,16.23.16,2.35.05,4.7.08,7.07.12,19.05.29,38.69.59,55.51,7.6-4.19,21.75.74,40.13,14.42,53.42l.59.57c1.06,1.01,3.02,2.9,3.12,3.62.02.18-.31.72-1,1.4-1.5,1.48-3.9,2.93-6.22,4.34l-1.04.63c-19.19,11.75-26.59,32.95-33.76,53.45-1.39,3.98-2.7,7.73-4.1,11.43-17.36,45.84-50.73,81.32-86.05,118.88-21.28,22.63-43.29,46.04-61.31,71.82-27.66,39.58-60.24,83.53-96.79,104.11-14.2,8-29.6,11.88-47.08,11.88-15.74,0-32.86-3.17-52.33-9.71-19.43-6.52-38.23-15.42-52.45-22.44-12.31-6.09-23.69-12-34.7-17.73-36.93-19.2-68.82-35.78-113.88-47.51-27.18-7.07-61.78-18.2-94.93-30.55-17.3-6.44-41.9-17.28-60.81-32.31-19.27-15.32-27.71-31.18-25.09-47.15,5.96-36.26,34.42-70.57,84.61-101.99,44.8-28.04,105.76-53.17,181.19-74.69,65.24-18.61,140.28-34.04,217-44.62,68.89-9.5,137.01-14.74,191.8-14.74M683.58,1.5C470.14,1.5,28.93,79.88,2.07,243.4c-6.9,42.01,50.48,72.3,90.36,87.15,29.41,10.95,65.24,22.86,95.61,30.76,57.66,15.01,93.83,38.33,147.24,64.74,34.35,16.98,71.89,32.87,107.88,32.87,17.38,0,34.4-3.71,50.52-12.78,38.96-21.94,73.46-69.53,99.09-106.2,46.6-66.68,119.35-116.14,148.17-192.23,8.52-22.49,14.46-48.83,34.97-61.39,5.33-3.26,12.38-7.09,11.54-13.28-.46-3.4-3.31-5.89-5.78-8.28-14.41-13.99-16.25-32.9-11.22-52.35h0c-21.35-11.03-46.47-10.26-70.49-10.75-5.3-.11-10.74-.16-16.37-.16h0Z"/>
  </g>
  <path class="cls-2" d="M523.39,59.93c44.57-11.87,89.54-23.74,135.55-28.43,22.65-2.31,45.53-3,68.22-.88,6.51.61,24.4-.17,28.69,4.47,1.4,1.51,5.65,17.04,3.58,17.67-62.1,19.02-123.04,41.77-182.41,68.1-31.08,13.78-62.14,28.68-95.55,34.95-26.45,4.96-53.94,4.32-80.14-1.86-3.55-.84-7.41-2.01-9.36-5.1-2.6-4.13-.58-9.49,1.48-13.91,8.11-17.4,17.02-35.73,33.21-46.02,8.7-5.53,18.84-8.26,28.8-10.91,22.65-6.03,45.29-12.06,67.94-18.09h0Z"/>
  <path class="cls-2" d="M600.65,128.35c-16.14,10.4-35.3,25.56-54.21,28.92-36.28,54.76-72.55,109.53-108.83,164.3-11.64,17.58-23.69,36.34-24.56,57.42,4.51-1.89,9.01-3.79,13.52-5.68-3.02,3.52-2.78,9.37.51,12.63,8.59,10.46,25.19,13.2,36.69,6.06,7.03-4.37,11.75-11.53,16.36-18.4,51.42-76.59,116.06-143.23,180.32-209.41,34.08-35.09,68.16-70.19,102.24-105.29-53.88,13.83-115.28,39.3-162.04,69.45Z"/>
  <path class="cls-2" d="M336.55,311.06c4.58.7,63.11-99.4,71.61-108.93,25.27-28.36,73.3-34.87,116.74-41.75-29.98,38.31-123.88,167.37-148.72,185.7,2.31-2.56-.8-6.97-4.25-7.08-3.45-.11-6.4,2.32-8.98,4.61-.45-3.71-.89-7.43-1.34-11.14-6.7,3.67-14.17,5.92-21.78,6.58,3.53-8.42,5.77-17.38,6.63-26.47-3.3-.5-6.61-1.01-9.91-1.51h0Z"/>
  <path class="cls-2" d="M297.03,221.6c12.44-17.24,37.18-28.46,55.3-38.75,8.28-4.7,13.05-9.31,22.83-11.16,12.83-2.43,22.41,7.89,30.82,7.53-18.68,25.3-38.96,49.43-60.67,72.18-6.36,6.67-13.06,13.37-21.49,17.08-9.93,4.37-21.39,4.19-31.33,8.53-11.38,4.97-19.45,15.2-27.03,25.04,6.97-11.88,12.43-24.64,16.2-37.89,4.15-14.59,6.48-30.25,15.36-42.55h.01Z"/>
  <path class="cls-2" d="M209.29,240.48c4.04,1.81,5.88,6.78,5.42,11.19-.46,4.4-2.71,8.39-4.92,12.23-2.18,3.8-4.42,7.67-7.66,10.62-3.24,2.96-7.71,4.9-12.01,4.05s-7.99-5.11-7.21-9.43c.64-3.56,3.87-6.08,7.17-7.54,3.31-1.46,6.93-2.25,9.98-4.18,5.33-3.37,8.16-10.26,6.75-16.4"/>
  <path class="cls-3" d="M30.53,293.97c.88-2.15,3.73-2.93,5.92-2.16,2.19.76,3.78,2.66,5,4.63,1.84,2.97,3.09,6.32,3.64,9.77-6.3-2.73-12.11-6.61-17.04-11.39"/>
  <path class="cls-3" d="M54.87,309.86c.67-2.22,3.43-3.28,5.68-2.73s4.02,2.28,5.43,4.12c2.12,2.78,3.69,5.99,4.58,9.37-6.55-2.1-12.7-5.39-18.08-9.66"/>
  <path class="cls-2" d="M345.24,59.95c.07,1.09.14,2.19.21,3.29,6.33-.76,12.91.76,18.27,4.21-5.36,4.78-13.26,5.02-20.44,4.84-11.81-.31-23.62-1.08-35.37-2.32.74-2.56,3.86-3.42,6.49-3.87,10.33-1.75,20.67-3.51,31-5.26"/>
  <path class="cls-2" d="M433.07,436.22c0,5.75,3.99,10.42,8.92,10.42,4.93,0,8.92-4.67,8.92-10.42s-3.99-10.42-8.92-10.42c-4.93,0-8.92,4.67-8.92,10.42Z"/>
  <path class="cls-2" d="M377.02,420.59c0,3.77,2.62,6.83,5.85,6.83s5.85-3.06,5.85-6.83c0-3.77-2.62-6.83-5.85-6.83s-5.85,3.06-5.85,6.83Z"/>
  <path class="cls-2" d="M32.34,244.23c0,3.77,2.62,6.83,5.85,6.83s5.85-3.06,5.85-6.83c0-3.77-2.62-6.83-5.85-6.83s-5.85,3.06-5.85,6.83Z"/>
  <path class="cls-2" d="M18.21,226.74c0,3.77,2.62,6.83,5.85,6.83s5.85-3.06,5.85-6.83-2.62-6.83-5.85-6.83-5.85,3.06-5.85,6.83Z"/>
  <path class="cls-2" d="M47.55,213.94c0,3.77,2.62,6.83,5.85,6.83s5.85-3.06,5.85-6.83-2.62-6.83-5.85-6.83-5.85,3.06-5.85,6.83Z"/>
  <ellipse class="cls-2" cx="44.28" cy="189.99" rx="5.85" ry="6.83"/>
  <ellipse class="cls-2" cx="394.77" cy="402.36" rx="5.85" ry="6.83"/>
  <path class="cls-2" d="M337.61,402.73c0,3.77,2.62,6.83,5.85,6.83,3.23,0,5.85-3.06,5.85-6.83,0-3.77-2.62-6.83-5.85-6.83-3.23,0-5.85,3.06-5.85,6.83Z"/>
  <path class="cls-2" d="M294.85,389.71c0,3.77,2.62,6.83,5.85,6.83s5.85-3.06,5.85-6.83c0-3.77-2.62-6.83-5.85-6.83s-5.85,3.06-5.85,6.83Z"/>
  <ellipse class="cls-2" cx="358.7" cy="375.57" rx="5.85" ry="6.83"/>
  <ellipse class="cls-2" cx="315.2" cy="356.59" rx="9.6" ry="11.21"/>
  <path class="cls-2" d="M255.43,357.34c0,3.77,2.62,6.83,5.85,6.83s5.85-3.06,5.85-6.83c0-3.77-2.62-6.83-5.85-6.83s-5.85,3.06-5.85,6.83Z"/>
  <ellipse class="cls-2" cx="220.38" cy="344.69" rx="5.85" ry="6.83"/>
  <ellipse class="cls-2" cx="183.57" cy="329.06" rx="5.85" ry="6.83"/>
  <ellipse class="cls-2" cx="285.82" cy="313.06" rx="9.6" ry="11.21"/>
  <ellipse class="cls-2" cx="240.83" cy="304.13" rx="11.66" ry="13.62"/>
  <ellipse class="cls-2" cx="254.78" cy="203.61" rx="11.66" ry="13.62"/>
  <path class="cls-2" d="M271.05,179.67c0,7.52,5.22,13.62,11.66,13.62s11.66-6.1,11.66-13.62c0-7.52-5.22-13.62-11.66-13.62s-11.66,6.1-11.66,13.62Z"/>
  <ellipse class="cls-2" cx="256.77" cy="127.79" rx="11.66" ry="13.62"/>
  <path class="cls-2" d="M279.03,111.83c0,7.52,5.22,13.62,11.66,13.62s11.66-6.1,11.66-13.62c0-7.52-5.22-13.62-11.66-13.62s-11.66,6.1-11.66,13.62Z"/>
  <ellipse class="cls-2" cx="376.49" cy="90.58" rx="11.66" ry="13.62"/>
  <path class="cls-2" d="M194.15,298.18c0,3.97,2.75,7.18,6.15,7.18s6.15-3.21,6.15-7.18-2.75-7.18-6.15-7.18-6.15,3.21-6.15,7.18Z"/>
  <path class="cls-2" d="M156.6,302.27c0,3.97,2.75,7.18,6.15,7.18s6.15-3.21,6.15-7.18-2.75-7.18-6.15-7.18-6.15,3.21-6.15,7.18Z"/>
  <path class="cls-2" d="M146.93,329.81c0,3.97,2.75,7.18,6.15,7.18s6.15-3.21,6.15-7.18-2.75-7.18-6.15-7.18-6.15,3.21-6.15,7.18Z"/>
  <path class="cls-2" d="M94.51,312.69c0,3.97,2.75,7.18,6.15,7.18s6.15-3.21,6.15-7.18c0-3.97-2.75-7.18-6.15-7.18s-6.15,3.21-6.15,7.18Z"/>
  <ellipse class="cls-2" cx="111.81" cy="279.95" rx="6.15" ry="7.18"/>
  <path class="cls-2" d="M69.22,288.88c0,3.97,2.75,7.18,6.15,7.18s6.15-3.21,6.15-7.18-2.75-7.18-6.15-7.18-6.15,3.21-6.15,7.18Z"/>
  <path class="cls-2" d="M67.74,234.93c0,3.97,2.75,7.18,6.15,7.18s6.15-3.21,6.15-7.18-2.75-7.18-6.15-7.18-6.15,3.21-6.15,7.18Z"/>
  <path class="cls-2" d="M49.89,274c0,3.97,2.75,7.18,6.15,7.18s6.15-3.21,6.15-7.18c0-3.97-2.75-7.18-6.15-7.18s-6.15,3.21-6.15,7.18Z"/>
  <path class="cls-2" d="M66.99,190.28c0,3.97,2.75,7.18,6.15,7.18s6.15-3.21,6.15-7.18-2.75-7.18-6.15-7.18-6.15,3.21-6.15,7.18Z"/>
  <path class="cls-2" d="M74.06,164.24c0,3.97,2.75,7.18,6.15,7.18s6.15-3.21,6.15-7.18-2.75-7.18-6.15-7.18-6.15,3.21-6.15,7.18Z"/>
  <ellipse class="cls-2" cx="111.12" cy="143.3" rx="6.15" ry="7.18"/>
  <ellipse class="cls-2" cx="406.25" cy="76.26" rx="6.15" ry="7.18"/>
  <path class="cls-2" d="M140.89,123.35c0,3.97,2.75,7.18,6.15,7.18s6.15-3.21,6.15-7.18-2.75-7.18-6.15-7.18-6.15,3.21-6.15,7.18Z"/>
  <path class="cls-2" d="M178.8,107.39c0,3.97,2.75,7.18,6.15,7.18s6.15-3.21,6.15-7.18-2.75-7.18-6.15-7.18-6.15,3.21-6.15,7.18Z"/>
  <ellipse class="cls-2" cx="477.8" cy="439.51" rx="3.77" ry="4.4"/>
  <path class="cls-3" d="M4.51,245.44c2.21-.65,4.6,1.09,5.36,3.27s.28,4.6-.5,6.78c-1.17,3.28-3,6.33-5.35,8.91-1.8-6.61-2.39-13.55-1.73-20.37"/>
  <path class="cls-3" d="M5.57,266.14c1.57-1.69,4.51-1.41,6.28.07s2.59,3.81,3.03,6.08c.67,3.43.65,6.98-.05,10.4-4.92-4.77-8.97-10.43-11.89-16.63"/>
  <path class="cls-2" d="M175.94,161.31c-6.62,15.27-21.46,25.14-34.91,34.19-14.54,9.8-29.09,19.59-43.63,29.38,12.72-8.56,47.25-106.71,78.54-63.57Z"/>
  <path class="cls-2" d="M185.8,178.25c.12,3.47.24,6.94.36,10.41,3.07-2.25,6.82-3.54,10.61-3.66-.86,2.1-.98,4.51-.31,6.68,5.04-.41,10.08-.83,15.12-1.24-17.63,28.68-42.48,52.87-71.62,69.71-2.56-15.17,6.86-29.51,15.92-41.93,8.23-11.29,16.54-22.51,24.93-33.67"/>
  <path class="cls-2" d="M208.92,232.21c2.39-6.96,4.6-21.58,14.42-22.48,11.75-1.08,6.49,9.33,8.85,15.67.62,1.68,2.4,2.57,3.79,3.71,3.56,2.93,4.72,8.04,4.05,12.6s-2.86,8.74-5.02,12.82c-2.04,3.86-5.56,8.37-9.71,7.04-3.21-1.03-4.62-5.17-7.83-6.19-1.92-.61-4.02.06-6.02-.23-4.41-.64-6.87-5.78-6.54-10.23s2.57-8.49,4.01-12.71h0Z"/>
  <path class="cls-2" d="M232.85,136.36c2.21-.61,4.12,1.79,4.68,4.02s.6,4.77,2.18,6.44c1.62,1.71,4.24,1.86,6.43,2.74,4.94,2,7.38,8.14,6.17,13.33-1.2,5.19-5.37,9.32-10.15,11.67-4.79,2.35-10.17,3.15-15.47,3.68-2.96.29-6.2.44-8.64-1.26-1.58-1.09-2.59-2.81-3.4-4.55-3.11-6.64-3.89-14.57-1.08-21.35,2.81-6.78,9.52-12.06,16.85-12.17"/>
  <path class="cls-2" d="M329.78,135.69c7.7,3.52,11.64,13.31,9.12,21.4-2.53,8.09-10.79,13.81-19.26,13.97-3.08.06-6.34-.62-8.58-2.74-3.59-3.41-3.36-9.23-1.94-13.98,1.49-5,4.06-9.79,8.06-13.13s9.54-5.04,14.57-3.69"/>
  <path class="cls-2" d="M329.71,93.95c7.46-.2,14.96.91,22.04,3.27,1.01.34,2.12.79,2.57,1.76.57,1.22-.17,2.63-.91,3.77-3.56,5.51-7.52,11-13.04,14.54-5.53,3.55-12.98,4.77-18.65,1.46-5.93-3.46-8.42-11.77-5.39-17.93,3.03-6.16,11.14-9.24,17.49-6.65"/>
  <path class="cls-2" d="M215.88,114.69c4.95,3.86,9.89,7.72,14.84,11.58.76.59,1.57,1.26,1.78,2.2.18.78-.1,1.58-.45,2.29-2.58,5.19-8.86,7.22-14.57,8.2-4.07.7-8.18,1.12-12.3,1.27-3.53.13-7.21.02-10.37-1.57-3.15-1.59-5.62-5.05-5-8.53.78-4.39,5.62-6.6,9.82-8.1,6.14-2.18,12.27-4.37,18.41-6.56"/>
  <path class="cls-2" d="M252.62,73.39c1.21,1.46,2.99,2.43,4.87,2.64-2.55,3.84-.12,9.91,4.37,10.93,2.52.57,5.93.17,6.93,2.55.79,1.86-.72,3.84-2.23,5.17-6.34,5.58-14.8,8.67-23.24,8.48-3.08-.07-6.67-.94-7.86-3.78-1.49-3.56,1.82-7.78.41-11.38-3.4.2-6.83-.37-9.98-1.66,6.19-7.09,15.28-11.55,24.67-12.11"/>
  <path class="cls-3" d="M334.23,49.19c3.32-1.04,7.18-.11,9.66,2.34-10.45,7.55-25.31,8.42-36.57,2.15,9.65-2.44,19.37-4.64,29.13-6.61"/>
  <path class="cls-2" d="M424.95,46.72c3.32-1.04,7.18-.11,9.66,2.34-10.45,7.55-25.31,8.42-36.57,2.15,9.65-2.44,19.37-4.64,29.13-6.61"/>
  <path class="cls-3" d="M402.59,34.81c3.37-.88,7.18.26,9.53,2.83-10.82,7-25.7,7.11-36.63.27,9.77-1.94,19.58-3.65,29.43-5.11"/>
  <path class="cls-3" d="M474.2,23.05c3.38-.84,7.18.33,9.51,2.92-10.89,6.9-25.76,6.88-36.63-.06,9.79-1.86,19.62-3.48,29.48-4.85"/>
  <path class="cls-3" d="M530.21,15.53c3.42-.67,7.15.7,9.34,3.41-11.24,6.32-26.09,5.52-36.58-1.98,9.87-1.34,19.77-2.43,29.69-3.29"/>
</svg>